<svg xmlns="http://www.w3.org/2000/svg" viewBox="0 0 960 420" role="img" aria-labelledby="title desc">
  <title id="title">MQTT short program lifecycle</title>
  <desc id="desc">A short MQTT program creates a client, connects, publishes work, and disconnects cleanly.</desc>
  <defs>
    <marker id="arrow" markerWidth="10" markerHeight="10" refX="8" refY="5" orient="auto">
      <path d="M0,0 L10,5 L0,10 Z" fill="#334155"/>
    </marker>
    <style>
      .bg { fill: #f8fafc; }
      .step { fill: #ffffff; stroke: #cbd5e1; stroke-width: 2; rx: 14; }
      .active { fill: #ecfdf5; stroke: #16a34a; stroke-width: 2; rx: 14; }
      .line { stroke: #334155; stroke-width: 3; marker-end: url(#arrow); fill: none; }
      text { font-family: Arial, sans-serif; fill: #0f172a; font-size: 18px; }
      .small { font-size: 14px; fill: #475569; }
      .label { font-size: 16px; font-weight: 700; }
      .head { font-size: 24px; font-weight: 700; }
      .num { font-size: 28px; font-weight: 700; fill: #64748b; }
      .code { font-family: "Courier New", monospace; font-size: 15px; fill: #334155; }
    </style>
  </defs>
  <rect class="bg" width="960" height="420"/>
  <text class="head" x="44" y="52">Lesson 3: connect, publish, disconnect</text>
  <rect class="step" x="48" y="140" width="180" height="120"/>
  <text class="num" x="72" y="180">1</text>
  <text class="label" x="112" y="178">Create client</text>
  <text class="code" x="72" y="220">make_mqtt_client()</text>
  <rect class="step" x="276" y="140" width="180" height="120"/>
  <text class="num" x="300" y="180">2</text>
  <text class="label" x="340" y="178">Connect</text>
  <text class="code" x="300" y="220">client.connect()</text>
  <rect class="active" x="504" y="140" width="180" height="120"/>
  <text class="num" x="528" y="180">3</text>
  <text class="label" x="568" y="178">Publish</text>
  <text class="code" x="528" y="220">status: online</text>
  <rect class="step" x="732" y="140" width="180" height="120"/>
  <text class="num" x="756" y="180">4</text>
  <text class="label" x="796" y="178">Disconnect</text>
  <text class="code" x="756" y="220">client.disconnect()</text>
  <path class="line" d="M228 200 H268"/>
  <path class="line" d="M456 200 H496"/>
  <path class="line" d="M684 200 H724"/>
  <text class="small" x="262" y="318">Short lab attempts should release broker sessions and board resources.</text>
</svg>
