<svg xmlns="http://www.w3.org/2000/svg" viewBox="0 0 960 420" role="img" aria-labelledby="title desc">
  <title id="title">Minimal MQTT command listener loop</title>
  <desc id="desc">The ESP32 subscribes to the command topic, check_msg processes a waiting command, and the callback turns the LED on.</desc>
  <defs>
    <marker id="arrow" markerWidth="10" markerHeight="10" refX="8" refY="5" orient="auto">
      <path d="M0,0 L10,5 L0,10 Z" fill="#f97316"/>
    </marker>
    <style>
      .bg { fill: #f8fafc; }
      .box { fill: #ffffff; stroke: #cbd5e1; stroke-width: 2; rx: 14; }
      .cmd { fill: #fff7ed; stroke: #f97316; stroke-width: 2; rx: 14; }
      .led { fill: #fef3c7; stroke: #ca8a04; stroke-width: 2; rx: 14; }
      .line { stroke: #f97316; stroke-width: 4; marker-end: url(#arrow); fill: none; }
      .loop { stroke: #64748b; stroke-width: 3; stroke-dasharray: 8 8; marker-end: url(#arrow); fill: none; }
      text { font-family: Arial, sans-serif; fill: #0f172a; font-size: 18px; }
      .small { font-size: 14px; fill: #475569; }
      .label { font-size: 16px; font-weight: 700; }
      .head { font-size: 24px; font-weight: 700; }
      .code { font-family: "Courier New", monospace; font-size: 15px; }
    </style>
  </defs>
  <rect class="bg" width="960" height="420"/>
  <text class="head" x="44" y="52">Lesson 6: callback runs when check_msg sees a command</text>
  <rect class="box" x="74" y="138" width="178" height="104"/>
  <text class="label" x="118" y="174">Subscribe</text>
  <text class="small" x="104" y="204">.../command</text>
  <rect class="cmd" x="318" y="138" width="178" height="104"/>
  <text class="label" x="368" y="174">Poll</text>
  <text class="code" x="354" y="204">check_msg()</text>
  <rect class="cmd" x="562" y="138" width="178" height="104"/>
  <text class="label" x="604" y="174">Callback</text>
  <text class="code" x="596" y="204">on_message</text>
  <rect class="led" x="782" y="138" width="126" height="104"/>
  <circle cx="828" cy="190" r="24" fill="#facc15" stroke="#ca8a04" stroke-width="3"/>
  <text class="small" x="858" y="197">LED on</text>
  <path class="line" d="M252 190 H310"/>
  <path class="line" d="M496 190 H554"/>
  <path class="line" d="M740 190 H774"/>
  <path class="loop" d="M407 242 C407 306 168 306 168 248"/>
  <text class="small" x="238" y="330">The loop is bounded: for _ in range(30)</text>
</svg>
