<svg xmlns="http://www.w3.org/2000/svg" viewBox="0 0 960 420" role="img" aria-labelledby="title desc">
  <title id="title">Full MQTT LED command loop</title>
  <desc id="desc">The worker sends a JSON command, the ESP32 parses it, updates GPIO 13, and publishes a LED changed event.</desc>
  <defs>
    <marker id="arrow-orange" markerWidth="10" markerHeight="10" refX="8" refY="5" orient="auto">
      <path d="M0,0 L10,5 L0,10 Z" fill="#f97316"/>
    </marker>
    <marker id="arrow-green" markerWidth="10" markerHeight="10" refX="8" refY="5" orient="auto">
      <path d="M0,0 L10,5 L0,10 Z" fill="#16a34a"/>
    </marker>
    <style>
      .bg { fill: #f8fafc; }
      .worker { fill: #fff7ed; stroke: #f97316; stroke-width: 2; rx: 14; }
      .esp { fill: #e0f2fe; stroke: #0284c7; stroke-width: 2; rx: 14; }
      .led { fill: #fef3c7; stroke: #ca8a04; stroke-width: 2; rx: 14; }
      .event { fill: #ecfdf5; stroke: #16a34a; stroke-width: 2; rx: 14; }
      .orange { stroke: #f97316; stroke-width: 4; marker-end: url(#arrow-orange); fill: none; }
      .green { stroke: #16a34a; stroke-width: 4; marker-end: url(#arrow-green); fill: none; }
      text { font-family: Arial, sans-serif; fill: #0f172a; font-size: 18px; }
      .small { font-size: 14px; fill: #475569; }
      .label { font-size: 16px; font-weight: 700; }
      .head { font-size: 24px; font-weight: 700; }
      .code { font-family: "Courier New", monospace; font-size: 14px; }
    </style>
  </defs>
  <rect class="bg" width="960" height="420"/>
  <text class="head" x="44" y="52">Lesson 9: command, hardware action, event</text>
  <rect class="worker" x="54" y="132" width="186" height="120"/>
  <text class="label" x="92" y="166">Worker/checker</text>
  <text class="code" x="82" y="204">"value": true</text>
  <rect class="esp" x="342" y="132" width="220" height="120"/>
  <text class="label" x="386" y="166">ESP32 callback</text>
  <text class="small" x="382" y="198">json.loads(...)</text>
  <text class="small" x="382" y="222">led.value(1)</text>
  <rect class="led" x="654" y="94" width="190" height="84"/>
  <circle cx="704" cy="136" r="24" fill="#facc15" stroke="#ca8a04" stroke-width="3"/>
  <text class="label" x="744" y="143">GPIO 13 LED</text>
  <rect class="event" x="654" y="226" width="224" height="100"/>
  <text class="label" x="698" y="260">Event back</text>
  <text class="code" x="694" y="294">{"state": true}</text>
  <path class="orange" d="M240 192 H334"/>
  <text class="small" x="258" y="174">.../command</text>
  <path class="orange" d="M562 174 C594 150 614 136 646 136"/>
  <path class="green" d="M562 218 C598 254 610 276 646 276"/>
  <text class="small" x="578" y="310">.../event</text>
</svg>
